<svg xmlns="http://www.w3.org/2000/svg" viewBox="0 0 50 50"><circle cx="25" cy="25" r="25" style="fill:#006c70"/><path d="M30.82,49.32A25,25,0,0,0,48.34,34L24.44,10.05,16,17.5l-4.14,4.05,8,8L16.46,35Z" style="fill:#023737"/><path d="M23.82,23.35a.25.25,0,0,1-.25-.25V10.45a.25.25,0,1,1,.5,0V23.1A.25.25,0,0,1,23.82,23.35Z" style="fill:#fff"/><path d="M25.75,24.36a.25.25,0,0,0-.21-.17l-1-.15-.46-.94a.26.26,0,0,0-.23-.14.26.26,0,0,0-.22.14l-.47.94-1,.15a.25.25,0,0,0-.2.17.25.25,0,0,0,.06.26l.75.73-.18,1a.26.26,0,0,0,.1.25.24.24,0,0,0,.27,0l.92-.48.92.48a.27.27,0,0,0,.12,0,.27.27,0,0,0,.15-.05.24.24,0,0,0,.1-.25l-.18-1,.75-.73A.28.28,0,0,0,25.75,24.36Z" style="fill:#ffc61b"/><path d="M25.75,24.36a.25.25,0,0,0-.21-.17l-1-.15-.46-.94a.26.26,0,0,0-.23-.14h-.05v3.21l.05,0,.92.48a.27.27,0,0,0,.12,0,.27.27,0,0,0,.15-.05.24.24,0,0,0,.1-.25l-.18-1,.75-.73A.28.28,0,0,0,25.75,24.36Z" style="fill:#f4a200"/><path d="M29.75,34.25a14.74,14.74,0,0,1-5.94-23.72A14.14,14.14,0,1,0,35.35,35.11,14.76,14.76,0,0,1,29.75,34.25Z" style="fill:#ffe98f"/><path d="M29.75,34.25A14.64,14.64,0,0,1,22.13,28L15,33.42a14.14,14.14,0,0,0,20.34,1.69A14.76,14.76,0,0,1,29.75,34.25Z" style="fill:#ffda44"/><path d="M21.25,15.38a16.07,16.07,0,0,1,3.19-5.33A15.5,15.5,0,0,0,12.25,20.1a15.09,15.09,0,0,0-.44,1.45l8.52.47A16.09,16.09,0,0,1,21.25,15.38Z" style="fill:#ff5023"/><path d="M17.64,27.88a1.23,1.23,0,0,1-1.25-1.15.26.26,0,0,1,.24-.27.25.25,0,0,1,.26.24.75.75,0,0,0,.8.67.74.74,0,0,0,.72-.75.25.25,0,0,1,.23-.27.26.26,0,0,1,.27.24,1.25,1.25,0,0,1-1.19,1.29Z" style="fill:#59595b"/><path d="M22.18,33.12a4.92,4.92,0,0,1-.84-.07.24.24,0,0,1-.21-.28.24.24,0,0,1,.29-.21,4.56,4.56,0,0,0,3.65-1,.24.24,0,0,1,.35,0,.25.25,0,0,1,0,.36A4.88,4.88,0,0,1,22.18,33.12Z" style="fill:#59595b"/></svg>