<svg xmlns="http://www.w3.org/2000/svg" viewBox="0 0 50 50"><circle cx="25" cy="25" r="25" style="fill:#31bafd"/><path d="M27.6,49.87A25,25,0,0,0,49.87,27.6l-13-13-3,2.53L26,9.26l-2,4.5,6.44,6.43L26,24.59l-8.26-8.25-1.42,1.42,8.16,8.36-4.31,4.31L13.76,24l-4.5,2,7.44,7.44-2.12,3.39Z" style="fill:#2b9ed8"/><circle cx="25" cy="25" r="8.99" style="fill:#f9b54c"/><path d="M25,16h-.06V34H25a9,9,0,1,0,0-18Z" style="fill:#f4a200"/><rect x="23.99" y="9.26" width="2.02" height="4.5" style="fill:#f2d453"/><rect x="24.94" y="9.26" width="1.07" height="4.5" style="fill:#f4a200"/><rect x="23.99" y="36.24" width="2.02" height="4.5" style="fill:#f2d453"/><rect x="24.94" y="36.24" width="1.07" height="4.5" style="fill:#f4a200"/><rect x="36.24" y="23.99" width="4.5" height="2.02" style="fill:#f4a200"/><rect x="9.26" y="23.99" width="4.5" height="2.02" style="fill:#f2d453"/><rect x="32.29" y="14.45" width="4.5" height="2.02" transform="translate(-0.81 28.95) rotate(-45)" style="fill:#f4a200"/><rect x="13.21" y="33.53" width="4.5" height="2.02" transform="translate(-19.9 21.05) rotate(-45)" style="fill:#f2d453"/><rect x="14.45" y="13.21" width="2.02" height="4.5" transform="translate(-6.4 15.46) rotate(-45)" style="fill:#f2d453"/><rect x="33.53" y="32.29" width="2.02" height="4.5" transform="translate(-14.31 34.54) rotate(-45)" style="fill:#f4a200"/></svg>